M48
;Layer_Color=9474304
;FILE_FORMAT=2:5
INCH,TZ
;TYPE=PLATED
T1F00S00C0.02800
T2F00S00C0.03346
T3F00S00C0.03543
T4F00S00C0.03937
;TYPE=NON_PLATED
T5F00S00C0.11811
%
T01
X51181Y31496
X94488
X125984
X236221Y39370
X299213Y43307
X334646Y39370
Y74803
Y125984
X240158
X236221Y74803
X125984
Y133858
X59055Y102362
X39370Y133858
T02
X44500Y47000
X253374Y55500
X312374Y56000
Y96000
X253374Y95500
X44500Y87000
T03
X40000Y14500
X50000
X60000
X70000
X93500Y15000
X103500
X113500
X123500
X246874Y15500
X256874
X266874
X276874
X299874
X309874
X319874
X329874
X291874Y130000
X281874
X93500Y121500
X83500
X104500Y78000
Y68000
Y58000
T04
X282874Y65000
Y75000
Y85000
X78000Y77000
Y67000
Y57000
T05
X185039Y11811
Y27559
Y43307
Y59055
Y74803
Y90551
Y106299
Y122047
Y137795
M30
