G04*
G04 #@! TF.GenerationSoftware,Altium Limited,Altium Designer,20.0.11 (256)*
G04*
G04 Layer_Color=8388736*
%FSLAX25Y25*%
%MOIN*%
G70*
G01*
G75*
%ADD12C,0.00800*%
%ADD13C,0.06706*%
%ADD14R,0.06706X0.06706*%
%ADD15R,0.06706X0.06706*%
%ADD16C,0.06312*%
%ADD17C,0.07099*%
%ADD18R,0.07099X0.07099*%
%ADD19C,0.05800*%
D12*
X185039Y11811D02*
D03*
Y27559D02*
D03*
Y43307D02*
D03*
Y59055D02*
D03*
Y74803D02*
D03*
Y90551D02*
D03*
Y106299D02*
D03*
Y122047D02*
D03*
Y137795D02*
D03*
D13*
X93500Y15000D02*
D03*
X103500D02*
D03*
X113500D02*
D03*
X299874Y15500D02*
D03*
X309874D02*
D03*
X319874D02*
D03*
X104500Y68000D02*
D03*
Y78000D02*
D03*
X281874Y130000D02*
D03*
X83500Y121500D02*
D03*
X246874Y15500D02*
D03*
X256874D02*
D03*
X266874D02*
D03*
X40000Y14500D02*
D03*
X50000D02*
D03*
X60000D02*
D03*
D14*
X123500Y15000D02*
D03*
X329874Y15500D02*
D03*
X291874Y130000D02*
D03*
X93500Y121500D02*
D03*
X276874Y15500D02*
D03*
X70000Y14500D02*
D03*
D15*
X104500Y58000D02*
D03*
D16*
X312374Y96000D02*
D03*
Y56000D02*
D03*
X253374Y95500D02*
D03*
Y55500D02*
D03*
X44500Y87000D02*
D03*
Y47000D02*
D03*
D17*
X282874Y85000D02*
D03*
Y75000D02*
D03*
X78000Y77000D02*
D03*
Y67000D02*
D03*
D18*
X282874Y65000D02*
D03*
X78000Y57000D02*
D03*
D19*
X299213Y43307D02*
D03*
X236221Y39370D02*
D03*
X334646D02*
D03*
X236221Y74803D02*
D03*
X240158Y125984D02*
D03*
X334646Y74803D02*
D03*
Y125984D02*
D03*
X59055Y102362D02*
D03*
X125984Y74803D02*
D03*
Y31496D02*
D03*
X94488D02*
D03*
X51181D02*
D03*
X125984Y133858D02*
D03*
X39370D02*
D03*
M02*
