G04*
G04 #@! TF.GenerationSoftware,Altium Limited,Altium Designer,20.0.11 (256)*
G04*
G04 Layer_Color=255*
%FSLAX25Y25*%
%MOIN*%
G70*
G01*
G75*
%ADD21C,0.05906*%
%ADD22R,0.05906X0.05906*%
%ADD23R,0.05906X0.05906*%
%ADD24C,0.05512*%
%ADD25C,0.06299*%
%ADD26R,0.06299X0.06299*%
D21*
X93500Y15000D02*
D03*
X103500D02*
D03*
X113500D02*
D03*
X299874Y15500D02*
D03*
X309874D02*
D03*
X319874D02*
D03*
X104500Y68000D02*
D03*
Y78000D02*
D03*
X281874Y130000D02*
D03*
X83500Y121500D02*
D03*
X246874Y15500D02*
D03*
X256874D02*
D03*
X266874D02*
D03*
X40000Y14500D02*
D03*
X50000D02*
D03*
X60000D02*
D03*
D22*
X123500Y15000D02*
D03*
X329874Y15500D02*
D03*
X291874Y130000D02*
D03*
X93500Y121500D02*
D03*
X276874Y15500D02*
D03*
X70000Y14500D02*
D03*
D23*
X104500Y58000D02*
D03*
D24*
X312374Y96000D02*
D03*
Y56000D02*
D03*
X253374Y95500D02*
D03*
Y55500D02*
D03*
X44500Y87000D02*
D03*
Y47000D02*
D03*
D25*
X282874Y85000D02*
D03*
Y75000D02*
D03*
X78000Y77000D02*
D03*
Y67000D02*
D03*
D26*
X282874Y65000D02*
D03*
X78000Y57000D02*
D03*
M02*
