G04*
G04 #@! TF.GenerationSoftware,Altium Limited,Altium Designer,20.0.11 (256)*
G04*
G04 Layer_Physical_Order=2*
G04 Layer_Color=16711680*
%FSLAX25Y25*%
%MOIN*%
G70*
G01*
G75*
%ADD21C,0.05906*%
%ADD22R,0.05906X0.05906*%
%ADD23R,0.05906X0.05906*%
%ADD24C,0.05512*%
%ADD25C,0.06299*%
%ADD26R,0.06299X0.06299*%
%ADD27C,0.05000*%
G36*
X137795Y133858D02*
X137795Y11811D01*
X125984Y0D01*
X39370D01*
X27559Y11811D01*
Y133858D01*
X39370Y145669D01*
X125984Y145669D01*
X137795Y133858D01*
D02*
G37*
G36*
X350394D02*
Y11811D01*
X338583Y-0D01*
X236221D01*
X224410Y11811D01*
Y133858D01*
X236221Y145669D01*
X338583Y145669D01*
X350394Y133858D01*
D02*
G37*
%LPC*%
G36*
X126484Y137323D02*
Y134358D01*
X129449D01*
X129394Y134772D01*
X129042Y135623D01*
X128481Y136354D01*
X127749Y136916D01*
X126898Y137268D01*
X126484Y137323D01*
D02*
G37*
G36*
X125484D02*
X125071Y137268D01*
X124219Y136916D01*
X123488Y136354D01*
X122927Y135623D01*
X122574Y134772D01*
X122520Y134358D01*
X125484D01*
Y137323D01*
D02*
G37*
G36*
X39870D02*
Y134358D01*
X42834D01*
X42780Y134772D01*
X42427Y135623D01*
X41866Y136354D01*
X41135Y136916D01*
X40284Y137268D01*
X39870Y137323D01*
D02*
G37*
G36*
X38870D02*
X38456Y137268D01*
X37605Y136916D01*
X36874Y136354D01*
X36313Y135623D01*
X35960Y134772D01*
X35906Y134358D01*
X38870D01*
Y137323D01*
D02*
G37*
G36*
X129449Y133358D02*
X126484D01*
Y130394D01*
X126898Y130448D01*
X127749Y130801D01*
X128481Y131362D01*
X129042Y132093D01*
X129394Y132945D01*
X129449Y133358D01*
D02*
G37*
G36*
X125484D02*
X122520D01*
X122574Y132945D01*
X122927Y132093D01*
X123488Y131362D01*
X124219Y130801D01*
X125071Y130448D01*
X125484Y130394D01*
Y133358D01*
D02*
G37*
G36*
X42834D02*
X39870D01*
Y130394D01*
X40284Y130448D01*
X41135Y130801D01*
X41866Y131362D01*
X42427Y132093D01*
X42780Y132945D01*
X42834Y133358D01*
D02*
G37*
G36*
X38870D02*
X35906D01*
X35960Y132945D01*
X36313Y132093D01*
X36874Y131362D01*
X37605Y130801D01*
X38456Y130448D01*
X38870Y130394D01*
Y133358D01*
D02*
G37*
G36*
X97453Y125453D02*
X89547D01*
Y117547D01*
X97453D01*
Y125453D01*
D02*
G37*
G36*
X83500Y125487D02*
X82468Y125351D01*
X81507Y124953D01*
X80681Y124319D01*
X80047Y123493D01*
X79649Y122532D01*
X79513Y121500D01*
X79649Y120468D01*
X80047Y119507D01*
X80681Y118681D01*
X81507Y118047D01*
X82468Y117649D01*
X83500Y117513D01*
X84532Y117649D01*
X85493Y118047D01*
X86319Y118681D01*
X86953Y119507D01*
X87351Y120468D01*
X87487Y121500D01*
X87351Y122532D01*
X86953Y123493D01*
X86319Y124319D01*
X85493Y124953D01*
X84532Y125351D01*
X83500Y125487D01*
D02*
G37*
G36*
X59555Y105827D02*
Y102862D01*
X62520D01*
X62465Y103276D01*
X62112Y104127D01*
X61551Y104858D01*
X60820Y105419D01*
X59969Y105772D01*
X59555Y105827D01*
D02*
G37*
G36*
X58555D02*
X58141Y105772D01*
X57290Y105419D01*
X56559Y104858D01*
X55998Y104127D01*
X55645Y103276D01*
X55591Y102862D01*
X58555D01*
Y105827D01*
D02*
G37*
G36*
X62520Y101862D02*
X59555D01*
Y98898D01*
X59969Y98952D01*
X60820Y99305D01*
X61551Y99866D01*
X62112Y100597D01*
X62465Y101449D01*
X62520Y101862D01*
D02*
G37*
G36*
X58555D02*
X55591D01*
X55645Y101449D01*
X55998Y100597D01*
X56559Y99866D01*
X57290Y99305D01*
X58141Y98952D01*
X58555Y98898D01*
Y101862D01*
D02*
G37*
G36*
X45000Y90723D02*
Y87500D01*
X48223D01*
X48159Y87981D01*
X47781Y88894D01*
X47179Y89679D01*
X46394Y90281D01*
X45480Y90659D01*
X45000Y90723D01*
D02*
G37*
G36*
X44000D02*
X43519Y90659D01*
X42606Y90281D01*
X41821Y89679D01*
X41219Y88894D01*
X40841Y87981D01*
X40778Y87500D01*
X44000D01*
Y90723D01*
D02*
G37*
G36*
X48223Y86500D02*
X45000D01*
Y83277D01*
X45480Y83341D01*
X46394Y83719D01*
X47179Y84321D01*
X47781Y85106D01*
X48159Y86019D01*
X48223Y86500D01*
D02*
G37*
G36*
X44000D02*
X40778D01*
X40841Y86019D01*
X41219Y85106D01*
X41821Y84321D01*
X42606Y83719D01*
X43519Y83341D01*
X44000Y83277D01*
Y86500D01*
D02*
G37*
G36*
X78500Y81120D02*
Y77500D01*
X82120D01*
X82043Y78083D01*
X81625Y79093D01*
X80959Y79959D01*
X80093Y80625D01*
X79083Y81043D01*
X78500Y81120D01*
D02*
G37*
G36*
X77500D02*
X76917Y81043D01*
X75907Y80625D01*
X75041Y79959D01*
X74375Y79093D01*
X73957Y78083D01*
X73880Y77500D01*
X77500D01*
Y81120D01*
D02*
G37*
G36*
X126484Y78268D02*
Y75303D01*
X129449D01*
X129394Y75717D01*
X129042Y76568D01*
X128481Y77299D01*
X127749Y77860D01*
X126898Y78213D01*
X126484Y78268D01*
D02*
G37*
G36*
X125484D02*
X125071Y78213D01*
X124219Y77860D01*
X123488Y77299D01*
X122927Y76568D01*
X122574Y75717D01*
X122520Y75303D01*
X125484D01*
Y78268D01*
D02*
G37*
G36*
X104500Y81987D02*
X103468Y81851D01*
X102507Y81453D01*
X101681Y80819D01*
X101047Y79993D01*
X100649Y79032D01*
X100513Y78000D01*
X100649Y76968D01*
X101047Y76007D01*
X101681Y75181D01*
X102507Y74547D01*
X103468Y74149D01*
X104500Y74013D01*
X105532Y74149D01*
X106493Y74547D01*
X107319Y75181D01*
X107953Y76007D01*
X108351Y76968D01*
X108487Y78000D01*
X108351Y79032D01*
X107953Y79993D01*
X107319Y80819D01*
X106493Y81453D01*
X105532Y81851D01*
X104500Y81987D01*
D02*
G37*
G36*
X82120Y76500D02*
X78500D01*
Y72880D01*
X79083Y72957D01*
X80093Y73375D01*
X80959Y74041D01*
X81625Y74907D01*
X82043Y75917D01*
X82120Y76500D01*
D02*
G37*
G36*
X77500D02*
X73880D01*
X73957Y75917D01*
X74375Y74907D01*
X75041Y74041D01*
X75907Y73375D01*
X76917Y72957D01*
X77500Y72880D01*
Y76500D01*
D02*
G37*
G36*
X129449Y74303D02*
X126484D01*
Y71339D01*
X126898Y71393D01*
X127749Y71746D01*
X128481Y72307D01*
X129042Y73038D01*
X129394Y73889D01*
X129449Y74303D01*
D02*
G37*
G36*
X125484D02*
X122520D01*
X122574Y73889D01*
X122927Y73038D01*
X123488Y72307D01*
X124219Y71746D01*
X125071Y71393D01*
X125484Y71339D01*
Y74303D01*
D02*
G37*
G36*
X104500Y71987D02*
X103468Y71851D01*
X102507Y71453D01*
X101681Y70819D01*
X101047Y69993D01*
X100649Y69032D01*
X100513Y68000D01*
X100649Y66968D01*
X101047Y66007D01*
X101681Y65181D01*
X102507Y64547D01*
X103468Y64149D01*
X104500Y64013D01*
X105532Y64149D01*
X106493Y64547D01*
X107319Y65181D01*
X107953Y66007D01*
X108351Y66968D01*
X108487Y68000D01*
X108351Y69032D01*
X107953Y69993D01*
X107319Y70819D01*
X106493Y71453D01*
X105532Y71851D01*
X104500Y71987D01*
D02*
G37*
G36*
X78000Y71185D02*
X76917Y71043D01*
X75907Y70625D01*
X75041Y69959D01*
X74375Y69093D01*
X73957Y68083D01*
X73815Y67000D01*
X73957Y65917D01*
X74375Y64907D01*
X75041Y64040D01*
X75907Y63375D01*
X76917Y62957D01*
X78000Y62815D01*
X79083Y62957D01*
X80093Y63375D01*
X80959Y64040D01*
X81625Y64907D01*
X82043Y65917D01*
X82185Y67000D01*
X82043Y68083D01*
X81625Y69093D01*
X80959Y69959D01*
X80093Y70625D01*
X79083Y71043D01*
X78000Y71185D01*
D02*
G37*
G36*
X108453Y61953D02*
X100547D01*
Y54047D01*
X108453D01*
Y61953D01*
D02*
G37*
G36*
X82150Y61150D02*
X73850D01*
Y52850D01*
X82150D01*
Y61150D01*
D02*
G37*
G36*
X44500Y50788D02*
X43519Y50659D01*
X42606Y50281D01*
X41821Y49679D01*
X41219Y48894D01*
X40841Y47980D01*
X40712Y47000D01*
X40841Y46020D01*
X41219Y45106D01*
X41821Y44321D01*
X42606Y43719D01*
X43519Y43341D01*
X44500Y43212D01*
X45480Y43341D01*
X46394Y43719D01*
X47179Y44321D01*
X47781Y45106D01*
X48159Y46020D01*
X48288Y47000D01*
X48159Y47980D01*
X47781Y48894D01*
X47179Y49679D01*
X46394Y50281D01*
X45480Y50659D01*
X44500Y50788D01*
D02*
G37*
G36*
X126484Y34960D02*
Y31996D01*
X129449D01*
X129394Y32410D01*
X129042Y33261D01*
X128481Y33992D01*
X127749Y34553D01*
X126898Y34906D01*
X126484Y34960D01*
D02*
G37*
G36*
X125484D02*
X125071Y34906D01*
X124219Y34553D01*
X123488Y33992D01*
X122927Y33261D01*
X122574Y32410D01*
X122520Y31996D01*
X125484D01*
Y34960D01*
D02*
G37*
G36*
X94988D02*
Y31996D01*
X97953D01*
X97898Y32410D01*
X97545Y33261D01*
X96984Y33992D01*
X96253Y34553D01*
X95402Y34906D01*
X94988Y34960D01*
D02*
G37*
G36*
X93988D02*
X93575Y34906D01*
X92723Y34553D01*
X91992Y33992D01*
X91431Y33261D01*
X91078Y32410D01*
X91024Y31996D01*
X93988D01*
Y34960D01*
D02*
G37*
G36*
X51681D02*
Y31996D01*
X54646D01*
X54591Y32410D01*
X54238Y33261D01*
X53677Y33992D01*
X52946Y34553D01*
X52095Y34906D01*
X51681Y34960D01*
D02*
G37*
G36*
X50681D02*
X50267Y34906D01*
X49416Y34553D01*
X48685Y33992D01*
X48124Y33261D01*
X47771Y32410D01*
X47717Y31996D01*
X50681D01*
Y34960D01*
D02*
G37*
G36*
X129449Y30996D02*
X126484D01*
Y28032D01*
X126898Y28086D01*
X127749Y28439D01*
X128481Y29000D01*
X129042Y29731D01*
X129394Y30582D01*
X129449Y30996D01*
D02*
G37*
G36*
X125484D02*
X122520D01*
X122574Y30582D01*
X122927Y29731D01*
X123488Y29000D01*
X124219Y28439D01*
X125071Y28086D01*
X125484Y28032D01*
Y30996D01*
D02*
G37*
G36*
X97953D02*
X94988D01*
Y28032D01*
X95402Y28086D01*
X96253Y28439D01*
X96984Y29000D01*
X97545Y29731D01*
X97898Y30582D01*
X97953Y30996D01*
D02*
G37*
G36*
X93988D02*
X91024D01*
X91078Y30582D01*
X91431Y29731D01*
X91992Y29000D01*
X92723Y28439D01*
X93575Y28086D01*
X93988Y28032D01*
Y30996D01*
D02*
G37*
G36*
X54646D02*
X51681D01*
Y28032D01*
X52095Y28086D01*
X52946Y28439D01*
X53677Y29000D01*
X54238Y29731D01*
X54591Y30582D01*
X54646Y30996D01*
D02*
G37*
G36*
X50681D02*
X47717D01*
X47771Y30582D01*
X48124Y29731D01*
X48685Y29000D01*
X49416Y28439D01*
X50267Y28086D01*
X50681Y28032D01*
Y30996D01*
D02*
G37*
G36*
X94000Y18921D02*
Y15500D01*
X97421D01*
X97351Y16032D01*
X96953Y16993D01*
X96319Y17819D01*
X95493Y18453D01*
X94532Y18851D01*
X94000Y18921D01*
D02*
G37*
G36*
X93000D02*
X92468Y18851D01*
X91507Y18453D01*
X90681Y17819D01*
X90047Y16993D01*
X89649Y16032D01*
X89579Y15500D01*
X93000D01*
Y18921D01*
D02*
G37*
G36*
X40500Y18421D02*
Y15000D01*
X43921D01*
X43851Y15532D01*
X43453Y16493D01*
X42819Y17319D01*
X41993Y17953D01*
X41032Y18351D01*
X40500Y18421D01*
D02*
G37*
G36*
X39500D02*
X38968Y18351D01*
X38007Y17953D01*
X37181Y17319D01*
X36547Y16493D01*
X36149Y15532D01*
X36079Y15000D01*
X39500D01*
Y18421D01*
D02*
G37*
G36*
X97421Y14500D02*
X94000D01*
Y11079D01*
X94532Y11149D01*
X95493Y11547D01*
X96319Y12181D01*
X96953Y13007D01*
X97351Y13968D01*
X97421Y14500D01*
D02*
G37*
G36*
X93000D02*
X89579D01*
X89649Y13968D01*
X90047Y13007D01*
X90681Y12181D01*
X91507Y11547D01*
X92468Y11149D01*
X93000Y11079D01*
Y14500D01*
D02*
G37*
G36*
X127453Y18953D02*
X119547D01*
Y11047D01*
X127453D01*
Y18953D01*
D02*
G37*
G36*
X113500Y18987D02*
X112468Y18851D01*
X111507Y18453D01*
X110681Y17819D01*
X110047Y16993D01*
X109649Y16032D01*
X109513Y15000D01*
X109649Y13968D01*
X110047Y13007D01*
X110681Y12181D01*
X111507Y11547D01*
X112468Y11149D01*
X113500Y11013D01*
X114532Y11149D01*
X115493Y11547D01*
X116319Y12181D01*
X116953Y13007D01*
X117351Y13968D01*
X117487Y15000D01*
X117351Y16032D01*
X116953Y16993D01*
X116319Y17819D01*
X115493Y18453D01*
X114532Y18851D01*
X113500Y18987D01*
D02*
G37*
G36*
X103500D02*
X102468Y18851D01*
X101507Y18453D01*
X100681Y17819D01*
X100047Y16993D01*
X99649Y16032D01*
X99513Y15000D01*
X99649Y13968D01*
X100047Y13007D01*
X100681Y12181D01*
X101507Y11547D01*
X102468Y11149D01*
X103500Y11013D01*
X104532Y11149D01*
X105493Y11547D01*
X106319Y12181D01*
X106953Y13007D01*
X107351Y13968D01*
X107487Y15000D01*
X107351Y16032D01*
X106953Y16993D01*
X106319Y17819D01*
X105493Y18453D01*
X104532Y18851D01*
X103500Y18987D01*
D02*
G37*
G36*
X43921Y14000D02*
X40500D01*
Y10579D01*
X41032Y10649D01*
X41993Y11047D01*
X42819Y11681D01*
X43453Y12507D01*
X43851Y13468D01*
X43921Y14000D01*
D02*
G37*
G36*
X39500D02*
X36079D01*
X36149Y13468D01*
X36547Y12507D01*
X37181Y11681D01*
X38007Y11047D01*
X38968Y10649D01*
X39500Y10579D01*
Y14000D01*
D02*
G37*
G36*
X73953Y18453D02*
X66047D01*
Y10547D01*
X73953D01*
Y18453D01*
D02*
G37*
G36*
X60000Y18487D02*
X58968Y18351D01*
X58007Y17953D01*
X57181Y17319D01*
X56547Y16493D01*
X56149Y15532D01*
X56013Y14500D01*
X56149Y13468D01*
X56547Y12507D01*
X57181Y11681D01*
X58007Y11047D01*
X58968Y10649D01*
X60000Y10513D01*
X61032Y10649D01*
X61993Y11047D01*
X62819Y11681D01*
X63453Y12507D01*
X63851Y13468D01*
X63987Y14500D01*
X63851Y15532D01*
X63453Y16493D01*
X62819Y17319D01*
X61993Y17953D01*
X61032Y18351D01*
X60000Y18487D01*
D02*
G37*
G36*
X50000D02*
X48968Y18351D01*
X48007Y17953D01*
X47181Y17319D01*
X46547Y16493D01*
X46149Y15532D01*
X46013Y14500D01*
X46149Y13468D01*
X46547Y12507D01*
X47181Y11681D01*
X48007Y11047D01*
X48968Y10649D01*
X50000Y10513D01*
X51032Y10649D01*
X51993Y11047D01*
X52819Y11681D01*
X53453Y12507D01*
X53851Y13468D01*
X53987Y14500D01*
X53851Y15532D01*
X53453Y16493D01*
X52819Y17319D01*
X51993Y17953D01*
X51032Y18351D01*
X50000Y18487D01*
D02*
G37*
G36*
X335146Y129449D02*
Y126484D01*
X338110D01*
X338056Y126898D01*
X337703Y127749D01*
X337142Y128481D01*
X336411Y129042D01*
X335559Y129394D01*
X335146Y129449D01*
D02*
G37*
G36*
X334146D02*
X333732Y129394D01*
X332881Y129042D01*
X332149Y128481D01*
X331588Y127749D01*
X331236Y126898D01*
X331181Y126484D01*
X334146D01*
Y129449D01*
D02*
G37*
G36*
X240657D02*
Y126484D01*
X243622D01*
X243567Y126898D01*
X243215Y127749D01*
X242654Y128481D01*
X241923Y129042D01*
X241071Y129394D01*
X240657Y129449D01*
D02*
G37*
G36*
X239657D02*
X239244Y129394D01*
X238392Y129042D01*
X237661Y128481D01*
X237100Y127749D01*
X236748Y126898D01*
X236693Y126484D01*
X239657D01*
Y129449D01*
D02*
G37*
G36*
X295827Y133953D02*
X287921D01*
Y126047D01*
X295827D01*
Y133953D01*
D02*
G37*
G36*
X281874Y133987D02*
X280842Y133851D01*
X279881Y133453D01*
X279055Y132819D01*
X278421Y131993D01*
X278023Y131032D01*
X277887Y130000D01*
X278023Y128968D01*
X278421Y128007D01*
X279055Y127181D01*
X279881Y126547D01*
X280842Y126149D01*
X281874Y126013D01*
X282906Y126149D01*
X283868Y126547D01*
X284693Y127181D01*
X285327Y128007D01*
X285725Y128968D01*
X285861Y130000D01*
X285725Y131032D01*
X285327Y131993D01*
X284693Y132819D01*
X283868Y133453D01*
X282906Y133851D01*
X281874Y133987D01*
D02*
G37*
G36*
X338110Y125484D02*
X335146D01*
Y122520D01*
X335559Y122574D01*
X336411Y122927D01*
X337142Y123488D01*
X337703Y124219D01*
X338056Y125071D01*
X338110Y125484D01*
D02*
G37*
G36*
X334146D02*
X331181D01*
X331236Y125071D01*
X331588Y124219D01*
X332149Y123488D01*
X332881Y122927D01*
X333732Y122574D01*
X334146Y122520D01*
Y125484D01*
D02*
G37*
G36*
X243622D02*
X240657D01*
Y122520D01*
X241071Y122574D01*
X241923Y122927D01*
X242654Y123488D01*
X243215Y124219D01*
X243567Y125071D01*
X243622Y125484D01*
D02*
G37*
G36*
X239657D02*
X236693D01*
X236748Y125071D01*
X237100Y124219D01*
X237661Y123488D01*
X238392Y122927D01*
X239244Y122574D01*
X239657Y122520D01*
Y125484D01*
D02*
G37*
G36*
X253874Y99222D02*
Y96000D01*
X257097D01*
X257033Y96481D01*
X256655Y97394D01*
X256053Y98179D01*
X255268Y98781D01*
X254355Y99159D01*
X253874Y99222D01*
D02*
G37*
G36*
X252874Y99222D02*
X252394Y99159D01*
X251480Y98781D01*
X250695Y98179D01*
X250093Y97394D01*
X249715Y96481D01*
X249652Y96000D01*
X252874D01*
Y99222D01*
D02*
G37*
G36*
X312374Y99788D02*
X311393Y99659D01*
X310480Y99281D01*
X309695Y98679D01*
X309093Y97894D01*
X308715Y96981D01*
X308586Y96000D01*
X308715Y95020D01*
X309093Y94106D01*
X309695Y93321D01*
X310480Y92719D01*
X311393Y92341D01*
X312374Y92212D01*
X313354Y92341D01*
X314268Y92719D01*
X315053Y93321D01*
X315655Y94106D01*
X316033Y95020D01*
X316162Y96000D01*
X316033Y96981D01*
X315655Y97894D01*
X315053Y98679D01*
X314268Y99281D01*
X313354Y99659D01*
X312374Y99788D01*
D02*
G37*
G36*
X252874Y95000D02*
X249652D01*
X249715Y94520D01*
X250093Y93606D01*
X250695Y92821D01*
X251480Y92219D01*
X252394Y91841D01*
X252874Y91777D01*
Y95000D01*
D02*
G37*
G36*
X257097D02*
X253874D01*
Y91777D01*
X254355Y91841D01*
X255268Y92219D01*
X256053Y92821D01*
X256655Y93606D01*
X257033Y94520D01*
X257097Y95000D01*
D02*
G37*
G36*
X283374Y89120D02*
Y85500D01*
X286994D01*
X286917Y86083D01*
X286499Y87093D01*
X285834Y87959D01*
X284967Y88625D01*
X283957Y89043D01*
X283374Y89120D01*
D02*
G37*
G36*
X282374Y89120D02*
X281791Y89043D01*
X280781Y88625D01*
X279914Y87959D01*
X279249Y87093D01*
X278831Y86083D01*
X278754Y85500D01*
X282374D01*
Y89120D01*
D02*
G37*
G36*
Y84500D02*
X278754D01*
X278831Y83917D01*
X279249Y82907D01*
X279914Y82041D01*
X280781Y81375D01*
X281791Y80957D01*
X282374Y80880D01*
Y84500D01*
D02*
G37*
G36*
X286994D02*
X283374D01*
Y80880D01*
X283957Y80957D01*
X284967Y81375D01*
X285834Y82041D01*
X286499Y82907D01*
X286917Y83917D01*
X286994Y84500D01*
D02*
G37*
G36*
X335146Y78268D02*
Y75303D01*
X338110D01*
X338056Y75717D01*
X337703Y76568D01*
X337142Y77299D01*
X336411Y77860D01*
X335559Y78213D01*
X335146Y78268D01*
D02*
G37*
G36*
X334146D02*
X333732Y78213D01*
X332881Y77860D01*
X332149Y77299D01*
X331588Y76568D01*
X331236Y75717D01*
X331181Y75303D01*
X334146D01*
Y78268D01*
D02*
G37*
G36*
X236720D02*
Y75303D01*
X239685D01*
X239630Y75717D01*
X239278Y76568D01*
X238717Y77299D01*
X237986Y77860D01*
X237134Y78213D01*
X236720Y78268D01*
D02*
G37*
G36*
X235720D02*
X235307Y78213D01*
X234455Y77860D01*
X233724Y77299D01*
X233163Y76568D01*
X232811Y75717D01*
X232756Y75303D01*
X235720D01*
Y78268D01*
D02*
G37*
G36*
X338110Y74303D02*
X335146D01*
Y71339D01*
X335559Y71393D01*
X336411Y71746D01*
X337142Y72307D01*
X337703Y73038D01*
X338056Y73889D01*
X338110Y74303D01*
D02*
G37*
G36*
X334146D02*
X331181D01*
X331236Y73889D01*
X331588Y73038D01*
X332149Y72307D01*
X332881Y71746D01*
X333732Y71393D01*
X334146Y71339D01*
Y74303D01*
D02*
G37*
G36*
X239685D02*
X236720D01*
Y71339D01*
X237134Y71393D01*
X237986Y71746D01*
X238717Y72307D01*
X239278Y73038D01*
X239630Y73889D01*
X239685Y74303D01*
D02*
G37*
G36*
X235720D02*
X232756D01*
X232811Y73889D01*
X233163Y73038D01*
X233724Y72307D01*
X234455Y71746D01*
X235307Y71393D01*
X235720Y71339D01*
Y74303D01*
D02*
G37*
G36*
X282874Y79185D02*
X281791Y79043D01*
X280781Y78625D01*
X279914Y77960D01*
X279249Y77093D01*
X278831Y76083D01*
X278689Y75000D01*
X278831Y73917D01*
X279249Y72907D01*
X279914Y72040D01*
X280781Y71375D01*
X281791Y70957D01*
X282874Y70815D01*
X283957Y70957D01*
X284967Y71375D01*
X285834Y72040D01*
X286499Y72907D01*
X286917Y73917D01*
X287059Y75000D01*
X286917Y76083D01*
X286499Y77093D01*
X285834Y77960D01*
X284967Y78625D01*
X283957Y79043D01*
X282874Y79185D01*
D02*
G37*
G36*
X287024Y69150D02*
X278724D01*
Y60850D01*
X287024D01*
Y69150D01*
D02*
G37*
G36*
X312374Y59788D02*
X311393Y59659D01*
X310480Y59281D01*
X309695Y58679D01*
X309093Y57894D01*
X308715Y56981D01*
X308586Y56000D01*
X308715Y55019D01*
X309093Y54106D01*
X309695Y53321D01*
X310480Y52719D01*
X311393Y52341D01*
X312374Y52212D01*
X313354Y52341D01*
X314268Y52719D01*
X315053Y53321D01*
X315655Y54106D01*
X316033Y55019D01*
X316162Y56000D01*
X316033Y56981D01*
X315655Y57894D01*
X315053Y58679D01*
X314268Y59281D01*
X313354Y59659D01*
X312374Y59788D01*
D02*
G37*
G36*
X253374Y59288D02*
X252394Y59159D01*
X251480Y58781D01*
X250695Y58179D01*
X250093Y57394D01*
X249715Y56480D01*
X249586Y55500D01*
X249715Y54519D01*
X250093Y53606D01*
X250695Y52821D01*
X251480Y52219D01*
X252394Y51841D01*
X253374Y51712D01*
X254355Y51841D01*
X255268Y52219D01*
X256053Y52821D01*
X256655Y53606D01*
X257033Y54519D01*
X257162Y55500D01*
X257033Y56480D01*
X256655Y57394D01*
X256053Y58179D01*
X255268Y58781D01*
X254355Y59159D01*
X253374Y59288D01*
D02*
G37*
G36*
X299713Y46771D02*
Y43807D01*
X302677D01*
X302623Y44221D01*
X302270Y45072D01*
X301709Y45803D01*
X300978Y46364D01*
X300126Y46717D01*
X299713Y46771D01*
D02*
G37*
G36*
X298713D02*
X298299Y46717D01*
X297447Y46364D01*
X296716Y45803D01*
X296155Y45072D01*
X295803Y44221D01*
X295748Y43807D01*
X298713D01*
Y46771D01*
D02*
G37*
G36*
X335146Y42834D02*
Y39870D01*
X338110D01*
X338056Y40284D01*
X337703Y41135D01*
X337142Y41866D01*
X336411Y42427D01*
X335559Y42780D01*
X335146Y42834D01*
D02*
G37*
G36*
X334146D02*
X333732Y42780D01*
X332881Y42427D01*
X332149Y41866D01*
X331588Y41135D01*
X331236Y40284D01*
X331181Y39870D01*
X334146D01*
Y42834D01*
D02*
G37*
G36*
X236720D02*
Y39870D01*
X239685D01*
X239630Y40284D01*
X239278Y41135D01*
X238717Y41866D01*
X237986Y42427D01*
X237134Y42780D01*
X236720Y42834D01*
D02*
G37*
G36*
X235720D02*
X235307Y42780D01*
X234455Y42427D01*
X233724Y41866D01*
X233163Y41135D01*
X232811Y40284D01*
X232756Y39870D01*
X235720D01*
Y42834D01*
D02*
G37*
G36*
X302677Y42807D02*
X299713D01*
Y39843D01*
X300126Y39897D01*
X300978Y40250D01*
X301709Y40811D01*
X302270Y41542D01*
X302623Y42393D01*
X302677Y42807D01*
D02*
G37*
G36*
X298713D02*
X295748D01*
X295803Y42393D01*
X296155Y41542D01*
X296716Y40811D01*
X297447Y40250D01*
X298299Y39897D01*
X298713Y39843D01*
Y42807D01*
D02*
G37*
G36*
X338110Y38870D02*
X335146D01*
Y35906D01*
X335559Y35960D01*
X336411Y36313D01*
X337142Y36874D01*
X337703Y37605D01*
X338056Y38456D01*
X338110Y38870D01*
D02*
G37*
G36*
X334146D02*
X331181D01*
X331236Y38456D01*
X331588Y37605D01*
X332149Y36874D01*
X332881Y36313D01*
X333732Y35960D01*
X334146Y35906D01*
Y38870D01*
D02*
G37*
G36*
X239685D02*
X236720D01*
Y35906D01*
X237134Y35960D01*
X237986Y36313D01*
X238717Y36874D01*
X239278Y37605D01*
X239630Y38456D01*
X239685Y38870D01*
D02*
G37*
G36*
X235720D02*
X232756D01*
X232811Y38456D01*
X233163Y37605D01*
X233724Y36874D01*
X234455Y36313D01*
X235307Y35960D01*
X235720Y35906D01*
Y38870D01*
D02*
G37*
G36*
X300374Y19421D02*
Y16000D01*
X303795D01*
X303725Y16532D01*
X303327Y17493D01*
X302693Y18319D01*
X301868Y18953D01*
X300906Y19351D01*
X300374Y19421D01*
D02*
G37*
G36*
X247374D02*
Y16000D01*
X250795D01*
X250725Y16532D01*
X250327Y17493D01*
X249693Y18319D01*
X248868Y18953D01*
X247906Y19351D01*
X247374Y19421D01*
D02*
G37*
G36*
X299374Y19421D02*
X298842Y19351D01*
X297881Y18953D01*
X297055Y18319D01*
X296421Y17493D01*
X296023Y16532D01*
X295953Y16000D01*
X299374D01*
Y19421D01*
D02*
G37*
G36*
X246374D02*
X245842Y19351D01*
X244881Y18953D01*
X244055Y18319D01*
X243421Y17493D01*
X243023Y16532D01*
X242953Y16000D01*
X246374D01*
Y19421D01*
D02*
G37*
G36*
X299374Y15000D02*
X295953D01*
X296023Y14468D01*
X296421Y13507D01*
X297055Y12681D01*
X297881Y12047D01*
X298842Y11649D01*
X299374Y11579D01*
Y15000D01*
D02*
G37*
G36*
X246374D02*
X242953D01*
X243023Y14468D01*
X243421Y13507D01*
X244055Y12681D01*
X244881Y12047D01*
X245842Y11649D01*
X246374Y11579D01*
Y15000D01*
D02*
G37*
G36*
X303795D02*
X300374D01*
Y11579D01*
X300906Y11649D01*
X301868Y12047D01*
X302693Y12681D01*
X303327Y13507D01*
X303725Y14468D01*
X303795Y15000D01*
D02*
G37*
G36*
X250795D02*
X247374D01*
Y11579D01*
X247906Y11649D01*
X248868Y12047D01*
X249693Y12681D01*
X250327Y13507D01*
X250725Y14468D01*
X250795Y15000D01*
D02*
G37*
G36*
X333827Y19453D02*
X325921D01*
Y11547D01*
X333827D01*
Y19453D01*
D02*
G37*
G36*
X280827D02*
X272921D01*
Y11547D01*
X280827D01*
Y19453D01*
D02*
G37*
G36*
X319874Y19487D02*
X318842Y19351D01*
X317881Y18953D01*
X317055Y18319D01*
X316421Y17493D01*
X316023Y16532D01*
X315887Y15500D01*
X316023Y14468D01*
X316421Y13507D01*
X317055Y12681D01*
X317881Y12047D01*
X318842Y11649D01*
X319874Y11513D01*
X320906Y11649D01*
X321867Y12047D01*
X322693Y12681D01*
X323327Y13507D01*
X323725Y14468D01*
X323861Y15500D01*
X323725Y16532D01*
X323327Y17493D01*
X322693Y18319D01*
X321867Y18953D01*
X320906Y19351D01*
X319874Y19487D01*
D02*
G37*
G36*
X309874D02*
X308842Y19351D01*
X307881Y18953D01*
X307055Y18319D01*
X306421Y17493D01*
X306023Y16532D01*
X305887Y15500D01*
X306023Y14468D01*
X306421Y13507D01*
X307055Y12681D01*
X307881Y12047D01*
X308842Y11649D01*
X309874Y11513D01*
X310906Y11649D01*
X311867Y12047D01*
X312693Y12681D01*
X313327Y13507D01*
X313725Y14468D01*
X313861Y15500D01*
X313725Y16532D01*
X313327Y17493D01*
X312693Y18319D01*
X311867Y18953D01*
X310906Y19351D01*
X309874Y19487D01*
D02*
G37*
G36*
X266874D02*
X265842Y19351D01*
X264881Y18953D01*
X264055Y18319D01*
X263421Y17493D01*
X263023Y16532D01*
X262887Y15500D01*
X263023Y14468D01*
X263421Y13507D01*
X264055Y12681D01*
X264881Y12047D01*
X265842Y11649D01*
X266874Y11513D01*
X267906Y11649D01*
X268867Y12047D01*
X269693Y12681D01*
X270327Y13507D01*
X270725Y14468D01*
X270861Y15500D01*
X270725Y16532D01*
X270327Y17493D01*
X269693Y18319D01*
X268867Y18953D01*
X267906Y19351D01*
X266874Y19487D01*
D02*
G37*
G36*
X256874D02*
X255842Y19351D01*
X254881Y18953D01*
X254055Y18319D01*
X253421Y17493D01*
X253023Y16532D01*
X252887Y15500D01*
X253023Y14468D01*
X253421Y13507D01*
X254055Y12681D01*
X254881Y12047D01*
X255842Y11649D01*
X256874Y11513D01*
X257906Y11649D01*
X258868Y12047D01*
X259693Y12681D01*
X260327Y13507D01*
X260725Y14468D01*
X260861Y15500D01*
X260725Y16532D01*
X260327Y17493D01*
X259693Y18319D01*
X258868Y18953D01*
X257906Y19351D01*
X256874Y19487D01*
D02*
G37*
%LPD*%
D21*
X93500Y15000D02*
D03*
X103500D02*
D03*
X113500D02*
D03*
X299874Y15500D02*
D03*
X309874D02*
D03*
X319874D02*
D03*
X104500Y68000D02*
D03*
Y78000D02*
D03*
X281874Y130000D02*
D03*
X83500Y121500D02*
D03*
X246874Y15500D02*
D03*
X256874D02*
D03*
X266874D02*
D03*
X40000Y14500D02*
D03*
X50000D02*
D03*
X60000D02*
D03*
D22*
X123500Y15000D02*
D03*
X329874Y15500D02*
D03*
X291874Y130000D02*
D03*
X93500Y121500D02*
D03*
X276874Y15500D02*
D03*
X70000Y14500D02*
D03*
D23*
X104500Y58000D02*
D03*
D24*
X312374Y96000D02*
D03*
Y56000D02*
D03*
X253374Y95500D02*
D03*
Y55500D02*
D03*
X44500Y87000D02*
D03*
Y47000D02*
D03*
D25*
X282874Y85000D02*
D03*
Y75000D02*
D03*
X78000Y77000D02*
D03*
Y67000D02*
D03*
D26*
X282874Y65000D02*
D03*
X78000Y57000D02*
D03*
D27*
X299213Y43307D02*
D03*
X236221Y39370D02*
D03*
X334646D02*
D03*
X236221Y74803D02*
D03*
X240158Y125984D02*
D03*
X334646Y74803D02*
D03*
Y125984D02*
D03*
X59055Y102362D02*
D03*
X125984Y74803D02*
D03*
Y31496D02*
D03*
X94488D02*
D03*
X51181D02*
D03*
X125984Y133858D02*
D03*
X39370D02*
D03*
M02*
